<svg xmlns="http://www.w3.org/2000/svg" viewBox="0 0 512 512" width="100%" height="100%">
  <defs>
    <linearGradient id="bgGrad" x1="0%" y1="0%" x2="100%" y2="100%">
      <stop offset="0%" stop-color="#10b981" />
      <stop offset="100%" stop-color="#059669" />
    </linearGradient>
    <linearGradient id="flameGrad" x1="0%" y1="100%" x2="0%" y2="0%">
      <stop offset="0%" stop-color="#f59e0b" />
      <stop offset="100%" stop-color="#ef4444" />
    </linearGradient>
  </defs>
  <circle cx="256" cy="256" r="240" fill="url(#bgGrad)" />
  <path d="M256 90C256 90 330 190 330 270C330 330 297 380 256 380C215 380 182 330 182 270C182 190 256 90 256 90Z" fill="url(#flameGrad)" />
  <path d="M256 180C256 180 300 240 300 290C300 330 280 360 256 360C232 360 212 330 212 290C212 240 256 180 256 180Z" fill="#ffeb3b" opacity="0.9" />
  <path d="M290 90C340 90 380 130 380 180C340 180 300 150 290 90Z" fill="#ffffff" opacity="0.9" />
</svg>
